<svg width="20" height="20" viewBox="0 0 20 20" fill="none" xmlns="http://www.w3.org/2000/svg">
<path fill-rule="evenodd" clip-rule="evenodd" d="M17.2264 6.73077C17.4169 7.19491 17.8683 7.49854 18.37 7.5C19.0509 7.50549 19.6 8.05905 19.6 8.74V10.88C19.6 11.5648 19.0448 12.12 18.36 12.12C17.8583 12.1215 17.4069 12.4251 17.2164 12.8892C17.026 13.3534 17.134 13.8865 17.49 14.24C17.9676 14.7295 17.9676 15.5106 17.49 16L15.99 17.5C15.5005 17.9776 14.7195 17.9776 14.23 17.5C14.0042 17.2608 13.6889 17.1267 13.36 17.13C13.0294 17.1273 12.7114 17.2568 12.4767 17.4896C12.242 17.7225 12.11 18.0394 12.11 18.37C12.11 19.0548 11.5548 19.61 10.87 19.61H8.73C8.04517 19.61 7.49 19.0548 7.49 18.37C7.49001 18.0394 7.358 17.7225 7.12328 17.4896C6.88857 17.2568 6.5706 17.1273 6.24 17.13C5.91111 17.1267 5.59576 17.2608 5.37 17.5C4.88055 17.9776 4.09945 17.9776 3.61 17.5L2.11 16C1.63237 15.5106 1.63237 14.7295 2.11 14.24C2.46605 13.8865 2.57402 13.3534 2.38355 12.8892C2.19308 12.4251 1.7417 12.1215 1.24 12.12C0.911132 12.12 0.595733 11.9894 0.363188 11.7568C0.130642 11.5243 0 11.2089 0 10.88V8.74C0 8.05517 0.555167 7.5 1.24 7.5C1.7417 7.49854 2.19308 7.19491 2.38355 6.73077C2.57402 6.26664 2.46605 5.73346 2.11 5.38C1.63237 4.89055 1.63237 4.10945 2.11 3.62L3.61 2.12C4.09945 1.64237 4.88055 1.64237 5.37 2.12C5.59576 2.35919 5.91111 2.49331 6.24 2.49C6.57234 2.49269 6.89185 2.36186 7.12685 2.12685C7.36186 1.89185 7.49269 1.57234 7.49 1.24C7.49 0.555167 8.04517 0 8.73 0H10.88C11.5648 0 12.12 0.555167 12.12 1.24C12.1173 1.57234 12.2481 1.89185 12.4831 2.12685C12.7182 2.36186 13.0377 2.49269 13.37 2.49C13.6989 2.49331 14.0142 2.35919 14.24 2.12C14.7295 1.64237 15.5105 1.64237 16 2.12L17.5 3.62C17.9776 4.10945 17.9776 4.89055 17.5 5.38C17.144 5.73346 17.036 6.26664 17.2264 6.73077ZM6.33984 9.8101C6.33984 7.89919 7.88894 6.3501 9.79984 6.3501C10.7175 6.3501 11.5976 6.71463 12.2464 7.36351C12.8953 8.01238 13.2598 8.89245 13.2598 9.8101C13.2598 11.721 11.7107 13.2701 9.79984 13.2701C7.88894 13.2701 6.33984 11.721 6.33984 9.8101Z" fill="#80858B"/>
</svg>
