<svg width="15" height="20" viewBox="0 0 15 20" fill="none" xmlns="http://www.w3.org/2000/svg">
<path d="M7.0513 0L5.6813 2.8C4.70235 4.80035 3.39031 6.61962 1.8013 8.18L1.6213 8.35C0.600764 9.34076 0.0176634 10.6977 0.00130184 12.12V12.3C-0.025728 15.0851 1.63391 17.6101 4.2013 18.69L4.4613 18.8C6.14517 19.5152 8.04744 19.5152 9.7313 18.8H9.7913C12.3779 17.6762 14.0375 15.1099 14.0013 12.29V7.95C13.1393 9.91853 11.5739 11.4946 9.6113 12.37C9.6113 12.37 9.6113 12.37 9.5513 12.37C9.4913 12.37 8.7913 12.66 8.4913 12.37C8.22335 12.0989 8.19769 11.6712 8.4313 11.37L8.5013 11.32H8.5513C10.8471 9.57498 11.3823 6.34172 9.7713 3.95C8.4713 1.97 7.0513 0 7.0513 0Z" fill="#80858B"/>
</svg>
